<svg width="76" height="62" viewBox="0 0 76 62" fill="none" xmlns="http://www.w3.org/2000/svg">
<path d="M40.6794 24.9398C40.5434 24.7613 40.4651 24.6568 40.3854 24.5538C39.932 23.9699 39.5322 23.3517 39.23 22.6786C38.5761 21.2224 38.1763 19.6988 38.2478 18.0956C38.4181 14.2531 40.1271 11.2926 43.4393 9.30745C44.6483 8.58209 45.9781 8.14523 47.3862 8.00647C48.0429 7.9419 48.7064 7.94465 49.3672 7.93504C50.1036 7.92405 50.8399 7.93229 51.5749 7.93229C55.6908 7.93229 59.8081 7.93229 63.9239 7.93229C64.5518 7.93229 64.4693 7.87184 64.4693 8.49005C64.4707 14.995 64.4707 21.4999 64.4707 28.0061C64.4707 28.0666 64.4707 28.1257 64.4707 28.1861C64.4721 28.5722 64.4927 28.5845 64.0751 28.5818C63.9693 28.5804 63.8649 28.5818 63.7591 28.5818C52.7921 28.5818 41.8251 28.5818 30.8567 28.5831C30.1121 28.5831 30.2166 28.4966 30.2179 29.2329C30.2207 30.2262 30.1767 31.214 30.0242 32.1976C29.9075 32.9436 29.7083 33.6634 29.3772 34.3448C28.6793 35.7791 27.5322 36.6432 25.9921 36.999C25.4358 37.1268 24.867 37.1748 24.2928 37.1817C22.6525 37.2023 21.5081 35.6005 22.0233 34.0247C22.1167 33.7404 22.2389 33.4642 22.353 33.1867C22.4175 33.0301 22.4615 33.0123 22.6305 33.0823C23.0605 33.2595 23.4918 33.4299 23.9479 33.5357C24.2763 33.6112 24.6046 33.6044 24.933 33.5563C25.5154 33.4697 25.9111 33.1276 26.1749 32.618C26.3548 32.2677 26.4551 31.8926 26.5156 31.5038C26.62 30.8334 26.6296 30.1575 26.6296 29.4816C26.631 23.4575 26.631 17.4321 26.6296 11.408C26.6296 10.9849 26.6557 10.5672 26.7821 10.162C27.1667 8.92554 28.3537 7.85948 30.0229 7.94053C30.1795 7.9474 30.2083 7.97625 30.2138 8.12737C30.2193 8.262 30.2166 8.398 30.2166 8.53263C30.2166 13.7915 30.2166 19.049 30.2166 24.3079C30.2166 24.4137 30.2152 24.5181 30.2166 24.6239C30.2207 25.0058 30.2207 25.0113 30.6246 25.0099C32.7883 25.0003 34.9506 24.9893 37.1144 24.9756C38.1365 24.9687 39.1572 24.9563 40.1793 24.9467C40.3126 24.9385 40.4472 24.9398 40.6794 24.9398ZM53.795 25.0044C55.9889 25.0044 58.1829 25.0058 60.3768 25.0044C60.9304 25.0044 60.8851 25.0621 60.8851 24.4961C60.8851 20.3335 60.8851 16.1709 60.8851 12.0097C60.8851 11.4478 60.9263 11.5096 60.3699 11.5096C57.1992 11.5083 54.0285 11.5096 50.8578 11.5083C50.1819 11.5083 49.506 11.5234 48.8315 11.5715C47.6445 11.6566 46.5276 11.9712 45.4808 12.5317C44.4724 13.0716 43.6028 13.7695 42.9791 14.7477C42.7043 15.179 42.4488 15.62 42.2304 16.083C42.0696 16.4237 41.9625 16.7809 41.8993 17.1546C41.8155 17.6477 41.8402 18.1437 41.832 18.6383C41.8279 18.8787 41.8595 19.1163 41.9034 19.354C42.0119 19.9337 42.2235 20.4791 42.4172 21.0314C42.523 21.3309 42.6645 21.6111 42.8431 21.8735C43.7443 23.1965 44.9175 24.1966 46.3875 24.8437C46.654 24.9604 46.9233 25.0127 47.2145 25.0113C49.4071 25.0003 51.601 25.0044 53.795 25.0044Z" fill="white"/>
<path d="M32.1825 39.7384C42.7002 39.7384 53.218 39.7397 63.7371 39.7343C64.3787 39.7343 64.957 39.8909 65.4599 40.2838C66.0945 40.7811 66.3693 41.4584 66.3982 42.2483C66.4036 42.4008 66.3363 42.4612 66.1784 42.4695C66.0588 42.475 65.9379 42.4722 65.8184 42.4722C44.842 42.4777 23.8669 42.4846 2.89046 42.4901C2.57449 42.4901 2.25989 42.4956 1.94941 42.4214C0.559137 42.0876 -0.00137127 40.8979 2.51869e-06 40.0214C2.51869e-06 39.9623 0.00412474 39.9019 0.0137413 39.8428C0.0247316 39.7782 0.0686937 39.7356 0.134636 39.7315C0.284379 39.7246 0.434122 39.7205 0.58524 39.7205C7.72209 39.7205 14.8603 39.7219 21.9972 39.7233C25.3932 39.7233 28.7892 39.7233 32.1852 39.7233C32.1825 39.7274 32.1825 39.7329 32.1825 39.7384Z" fill="#F8F8FF"/>
<path d="M8.45021 19.692C8.45021 22.9657 8.45433 26.2409 8.44746 29.5146C8.44471 30.6425 8.36228 31.7649 8.11638 32.8694C8.0051 33.3695 7.83337 33.8489 7.61357 34.3119C6.92804 35.7516 5.78505 36.6226 4.24915 36.9894C3.67903 37.1254 3.09516 37.1749 2.50718 37.179C1.25153 37.1872 0.214318 36.2503 0.116779 34.9026C0.0961722 34.6141 0.144256 34.3325 0.237673 34.0605C0.340708 33.7624 0.457479 33.4698 0.575625 33.1785C0.637446 33.0274 0.684155 33.0164 0.858626 33.081C1.18147 33.2005 1.50293 33.3255 1.82852 33.4395C2.17197 33.559 2.52641 33.603 2.89184 33.5838C3.60347 33.5453 4.10902 33.2074 4.41812 32.5685C4.62969 32.1303 4.72997 31.6618 4.77806 31.181C4.84537 30.4927 4.86598 29.8031 4.86598 29.1121C4.86323 23.1649 4.86461 17.2164 4.86324 11.2693C4.86324 10.9382 4.8756 10.6098 4.96352 10.287C5.32071 8.96266 6.553 7.84989 8.24139 7.93507C8.40625 7.94331 8.44197 7.98178 8.44746 8.15762C8.45158 8.27714 8.44883 8.39804 8.44883 8.51756C8.4502 12.2433 8.45021 15.9676 8.45021 19.692Z" fill="white"/>
<path d="M74.2 14.1968C74.2 18.7193 74.2 23.2419 74.2 27.763C74.2 28.0034 74.2096 28.2438 74.1615 28.4815C73.9087 29.722 73.1353 30.4817 71.9579 30.8664C71.5815 30.9887 71.19 30.9983 70.7984 30.9846C70.6556 30.9804 70.6171 30.9392 70.6116 30.7936C70.6075 30.6741 70.6089 30.5532 70.6089 30.4337C70.6089 21.3886 70.6089 12.3449 70.6102 3.29988C70.6102 3.07458 70.6047 2.84653 70.6405 2.62535C70.8493 1.3381 71.6241 0.539932 72.8385 0.138785C73.1985 0.0206387 73.5749 3.05176e-05 73.9513 3.05176e-05C74.1725 3.05176e-05 74.1958 0.0302528 74.2013 0.269293C74.2041 0.388813 74.2027 0.509706 74.2027 0.629226C74.2013 5.15175 74.2 9.67428 74.2 14.1968Z" fill="white"/>
<path d="M18.1561 14.2435C18.1561 18.766 18.1561 23.2899 18.1561 27.8125C18.1561 28.1284 18.1561 28.443 18.0654 28.7508C17.7398 29.8539 16.9897 30.5257 15.9168 30.8678C15.539 30.9887 15.1488 30.9955 14.7559 30.9859C14.6474 30.9832 14.5911 30.931 14.5911 30.8211C14.5911 30.7015 14.5897 30.5807 14.5897 30.4611C14.5897 21.3694 14.5897 12.279 14.5883 3.18722C14.5883 2.77921 14.6034 2.37668 14.7628 1.99202C15.2271 0.86551 16.083 0.237688 17.2686 0.0439829C17.5035 0.00551668 17.748 0.016507 17.9885 0.00963806C18.097 0.00689048 18.1519 0.0700851 18.1533 0.177241C18.1547 0.326984 18.1574 0.478101 18.1574 0.627845C18.1561 5.16686 18.1561 9.70449 18.1561 14.2435Z" fill="white"/>
<path d="M71.5622 53.9063C71.5966 54.0725 71.7092 54.1975 71.7972 54.3349C72.7616 55.8571 73.7301 57.3765 74.6959 58.8959C74.7687 59.0099 74.8456 59.1226 74.906 59.2421C75.2742 59.9702 74.836 60.8302 74.0337 60.9676C73.9142 60.9882 73.829 60.9497 73.7658 60.8522C73.693 60.7382 73.6202 60.6241 73.5474 60.5101C72.3013 58.5634 71.0539 56.6154 69.8079 54.6687C69.7598 54.5932 69.7008 54.5217 69.665 54.4407C69.5579 54.2017 69.3765 54.144 69.1238 54.1467C68.1772 54.1604 67.2307 54.1522 66.2855 54.1522C66.2099 54.1522 66.1358 54.1536 66.0602 54.1549C65.953 54.1549 65.8898 54.2071 65.8844 54.3143C65.8775 54.4338 65.8789 54.5547 65.8789 54.6742C65.8789 56.0714 65.8802 57.4685 65.8775 58.8643C65.8775 59.0594 65.8692 59.2558 65.8376 59.4468C65.7071 60.2614 65.0408 60.8852 64.2234 60.9717C64.0861 60.9868 64.0325 60.9429 64.027 60.8C64.0215 60.6805 64.0242 60.5596 64.0242 60.44C64.0242 55.423 64.0242 50.4072 64.0256 45.3901C64.0256 44.7843 63.9583 44.853 64.5435 44.8516C66.1811 44.8489 67.8173 44.8502 69.4548 44.8516C70.3615 44.853 71.2518 44.9684 72.1049 45.2954C72.3288 45.3805 72.55 45.4753 72.7629 45.5866C74.0639 46.268 74.7577 47.3629 74.9308 48.8054C75.0036 49.4057 74.9665 50.002 74.8552 50.5982C74.6807 51.5241 74.2164 52.2728 73.4952 52.8663C73.0034 53.2716 72.4497 53.5683 71.8452 53.7689C71.7422 53.8019 71.6337 53.8129 71.5622 53.9063ZM65.8761 49.4511C65.8761 50.263 65.8761 51.0735 65.8761 51.8854C65.8761 52.005 65.8802 52.1258 65.8871 52.2454C65.8912 52.3127 65.9297 52.358 65.9984 52.3621C66.1028 52.369 66.2086 52.3745 66.313 52.3745C67.184 52.3759 68.0563 52.3786 68.9273 52.3731C69.2721 52.3704 69.6183 52.3621 69.9631 52.3347C70.4879 52.2935 71.0045 52.2055 71.4977 52.0063C72.3123 51.6766 72.8179 51.0859 72.9924 50.2259C73.0913 49.7368 73.094 49.2381 73.0034 48.7463C72.8618 47.9839 72.4305 47.4371 71.723 47.1143C71.5595 47.0401 71.3905 46.9769 71.2188 46.9219C70.5992 46.7213 69.959 46.6485 69.3092 46.6472C68.2871 46.6444 67.2664 46.6458 66.2443 46.6458C66.1687 46.6458 66.0945 46.6485 66.019 46.6513C65.9311 46.6554 65.883 46.7062 65.8802 46.7928C65.8747 46.9123 65.8747 47.0332 65.8747 47.1527C65.8761 47.9179 65.8761 48.6845 65.8761 49.4511Z" fill="white"/>
<path d="M40.09 53.9036C40.1216 54.0698 40.2357 54.1948 40.3222 54.3322C41.3113 55.8914 42.2991 57.4507 43.2951 59.0072C43.4792 59.2957 43.5946 59.5911 43.5548 59.9386C43.4957 60.4648 43.0382 60.9264 42.5189 60.9731C42.4392 60.98 42.3692 60.958 42.3225 60.8907C42.2455 60.7794 42.1727 60.6667 42.0999 60.5527C40.8456 58.5937 39.59 56.6333 38.3357 54.6729C38.311 54.6344 38.2876 54.596 38.2629 54.5589C37.9442 54.078 38.0857 54.1577 37.5169 54.1536C36.646 54.1481 35.775 54.1522 34.904 54.1522C34.7845 54.1522 34.6636 54.1536 34.544 54.1591C34.4561 54.1632 34.408 54.2223 34.4012 54.3033C34.3916 54.4229 34.3929 54.5437 34.3929 54.6633C34.3929 56.0604 34.3929 57.4576 34.3916 58.8533C34.3916 59.0031 34.3943 59.1542 34.3806 59.3039C34.3009 60.1832 33.6305 60.8687 32.7567 60.9703C32.6152 60.9868 32.5617 60.9456 32.5548 60.8041C32.5493 60.6846 32.552 60.5637 32.552 60.4442C32.552 55.4271 32.5507 50.4114 32.5534 45.3943C32.5534 44.7733 32.4779 44.8516 33.1084 44.8503C34.7309 44.8475 36.352 44.8489 37.9744 44.8503C38.7904 44.8503 39.5914 44.9492 40.3703 45.2006C40.7289 45.316 41.0723 45.463 41.4006 45.6471C42.4434 46.2296 43.0973 47.106 43.361 48.2683C43.5575 49.1324 43.5314 49.9979 43.3185 50.8565C43.1206 51.656 42.6824 52.3072 42.0546 52.8334C41.5655 53.2428 41.0146 53.5423 40.4143 53.7524C40.3016 53.795 40.1752 53.7991 40.09 53.9036ZM34.3861 49.4854C34.3861 49.6654 34.3861 49.8454 34.3861 50.0253C34.3861 50.6861 34.3847 51.3469 34.3874 52.0063C34.3888 52.369 34.3929 52.3718 34.7721 52.3731C35.448 52.3759 36.1225 52.3786 36.7984 52.3718C37.3534 52.3663 37.9098 52.3622 38.4635 52.3333C39.0048 52.3045 39.535 52.2069 40.0406 51.9995C40.8333 51.6725 41.3347 51.0969 41.5147 50.2548C41.6191 49.7657 41.6246 49.2684 41.5394 48.7779C41.4006 47.9798 40.9487 47.4165 40.2041 47.0895C39.9692 46.9865 39.7301 46.9027 39.4828 46.8395C38.9113 46.6966 38.3302 46.6431 37.7436 46.6444C36.7682 46.6472 35.7914 46.6444 34.8161 46.6444C34.7405 46.6444 34.6663 46.6431 34.5908 46.6458C34.4369 46.654 34.3998 46.687 34.3916 46.8271C34.3861 46.9316 34.3888 47.0373 34.3888 47.1418C34.3861 47.9234 34.3861 48.7038 34.3861 49.4854Z" fill="white"/>
<path d="M25.8191 47.5855C25.6776 47.5758 25.5704 47.4852 25.4537 47.4206C24.2021 46.7365 22.8558 46.4109 21.4353 46.4081C20.1137 46.4054 18.8787 46.7255 17.7742 47.4769C16.5268 48.3259 15.7396 49.5088 15.3659 50.954C15.017 52.3017 15.0046 53.67 15.4126 55.0039C16.1462 57.4067 17.7604 58.8561 20.2484 59.2915C21.4834 59.5086 22.702 59.3685 23.9054 59.0525C24.2832 58.9536 24.6555 58.8368 25.0168 58.6898C25.1253 58.6459 25.1899 58.5758 25.1858 58.4535C25.1844 58.3931 25.1872 58.334 25.1872 58.2736C25.1872 57.2226 25.1872 56.1703 25.1872 55.1193C25.1872 55.03 25.1844 54.9394 25.1748 54.8501C25.1679 54.7855 25.124 54.7429 25.0566 54.7388C24.9371 54.7319 24.8162 54.7278 24.6967 54.7278C24.0359 54.7264 23.3751 54.7306 22.7143 54.7251C22.5192 54.7237 22.3228 54.7154 22.1318 54.6825C21.3501 54.5492 20.7223 53.8513 20.6674 53.0669C20.6591 52.9556 20.7031 52.9048 20.824 52.8979C20.8982 52.8924 20.9737 52.8938 21.0493 52.8938C22.9121 52.8938 24.7736 52.8938 26.6365 52.8924C27.0541 52.8924 27.0431 52.891 27.0418 53.2785C27.0418 55.2911 27.0418 57.3037 27.0418 59.3163C27.0418 59.3767 27.0363 59.4372 27.0418 59.4962C27.0555 59.6364 26.9813 59.7147 26.8687 59.782C26.5074 59.999 26.1351 60.1941 25.7435 60.348C23.8614 61.0898 21.9065 61.3756 19.9104 61.05C16.8304 60.5458 14.7079 58.808 13.7077 55.8337C12.9068 53.4543 13.0456 51.0886 14.179 48.8329C15.256 46.687 17.0282 45.3929 19.354 44.8544C20.508 44.5865 21.6771 44.6002 22.8476 44.7335C23.4768 44.8049 24.0895 44.9423 24.6912 45.1332C24.8478 45.1827 25.0044 45.2404 25.1501 45.316C26.0774 45.7968 26.267 47.0167 25.8191 47.5855Z" fill="white"/>
<path d="M46.121 60.9566C46.1278 60.7574 46.224 60.5994 46.2899 60.4346C47.8423 56.5618 49.3975 52.6905 50.9512 48.8191C51.4101 47.6775 51.8675 46.5345 52.3264 45.3929C52.3594 45.3091 52.4047 45.2294 52.4267 45.1429C52.483 44.9176 52.6135 44.8338 52.8498 44.8475C53.1946 44.8667 53.5408 44.8585 53.8856 44.8502C54.0574 44.8461 54.1604 44.8997 54.2222 45.0701C54.3335 45.3805 54.4654 45.6841 54.589 45.9905C56.2994 50.252 58.0098 54.5149 59.7201 58.7764C59.782 58.9289 59.8479 59.0814 59.896 59.2394C60.1446 60.0362 59.6185 60.8591 58.7901 60.9731C58.6925 60.9868 58.6115 60.9662 58.5703 60.8646C58.5249 60.7533 58.4769 60.6434 58.4315 60.5321C57.8944 59.1954 57.3572 57.8587 56.8201 56.5206C56.7802 56.4231 56.7404 56.3255 56.7047 56.2266C56.6607 56.0989 56.5851 56.0233 56.4395 56.0357C56.3653 56.0425 56.2898 56.0357 56.2142 56.0357C54.2909 56.0357 52.3676 56.0357 50.4457 56.0357C50.4003 56.0357 50.355 56.0425 50.311 56.0343C50.1105 56.0013 50.0157 56.1016 49.947 56.2802C49.6241 57.1045 49.2903 57.9246 48.9606 58.7462C48.8933 58.9138 48.8356 59.0841 48.7573 59.2462C48.2586 60.2779 47.4329 60.8467 46.2982 60.9717C46.2405 60.98 46.1814 60.9635 46.121 60.9566ZM55.8612 54.2168C55.7128 53.6837 53.5065 48.2435 53.3238 47.9482C53.2812 48.0361 53.2372 48.1144 53.2042 48.1968C52.4418 50.0858 51.6793 51.9761 50.9183 53.8665C50.8908 53.9351 50.8647 54.0066 50.8468 54.078C50.8317 54.1412 50.8537 54.2003 50.9279 54.2058C51.0323 54.2154 51.1367 54.2154 51.2425 54.2154C52.6671 54.2154 54.0917 54.2154 55.5177 54.2154C55.6207 54.2168 55.7238 54.2168 55.8612 54.2168Z" fill="white"/>
<path d="M9.27722 51.7261C9.33492 52.0997 9.33355 53.1163 9.27585 53.4776C9.11786 53.5367 8.95163 53.5065 8.78815 53.5065C6.78928 53.5092 4.79179 53.5079 2.79292 53.5092C2.2695 53.5092 2.30522 53.4584 2.30385 53.9901C2.30247 55.5672 2.30385 57.1457 2.30385 58.7228C2.30385 58.8286 2.30384 58.933 2.30934 59.0388C2.31346 59.1226 2.35468 59.1816 2.44535 59.1844C2.57998 59.1885 2.71598 59.1912 2.85061 59.1912C5.14897 59.1912 7.4487 59.1926 9.74706 59.1912C10.1853 59.1912 10.1853 59.183 10.0946 59.6171C9.94076 60.3549 9.2731 60.914 8.49004 60.9799C8.38563 60.9882 8.27984 60.9854 8.17406 60.9854C5.75481 60.9854 3.33557 60.9854 0.916316 60.9854C0.811908 60.9854 0.706125 60.984 0.601716 60.9785C0.513794 60.9744 0.467088 60.9195 0.462966 60.8343C0.457471 60.7299 0.45747 60.6241 0.45747 60.5197C0.45747 55.4559 0.45747 50.3921 0.45747 45.3297C0.45747 45.239 0.454724 45.1497 0.458845 45.059C0.465714 44.8832 0.489068 44.8626 0.677278 44.8543C0.752836 44.8516 0.827019 44.853 0.902577 44.853C3.32183 44.853 5.74108 44.8543 8.16033 44.8516C8.40211 44.8516 8.63978 44.8708 8.8692 44.9519C9.52038 45.1827 9.99846 45.8009 10.041 46.4699C10.0479 46.5867 10.0067 46.6375 9.8913 46.643C9.77178 46.6485 9.65089 46.6458 9.53137 46.6458C7.3072 46.6458 5.0844 46.6458 2.86023 46.6458C2.7256 46.6458 2.5896 46.6471 2.45497 46.6513C2.36842 46.654 2.31759 46.7021 2.31209 46.7886C2.3066 46.8628 2.30522 46.9384 2.30522 47.0139C2.30522 48.4413 2.30385 49.8687 2.30522 51.2961C2.30522 51.6876 2.30934 51.6917 2.70499 51.6917C4.73409 51.6931 6.76181 51.6917 8.7909 51.6945C8.95301 51.6931 9.11923 51.6601 9.27722 51.7261Z" fill="white"/>
<path d="M69.7296 39.6999C69.742 39.5336 69.6472 39.4265 69.5867 39.3111C69.3545 38.8797 69.2391 38.414 69.1952 37.9359C69.1471 37.4221 69.2405 36.9152 69.4246 36.4357C69.9398 35.0867 70.9372 34.316 72.3412 34.0412C72.9072 33.9299 73.4787 33.9258 74.046 33.9684C75.413 34.0715 76.0779 35.1416 75.9927 36.264C75.9817 36.4041 75.9391 36.4495 75.799 36.4564C75.6795 36.4619 75.5586 36.4591 75.4391 36.4591C74.5241 36.4564 73.6078 36.4591 72.6929 36.4495C72.1777 36.444 71.7683 36.6418 71.4221 37.0155C70.6981 37.7999 70.9674 39.3757 72.1997 39.7122C72.4016 39.7672 72.6077 39.8084 72.8206 39.8043C73.1352 39.7988 73.4512 39.8043 73.7658 39.8098C74.6079 39.8222 75.3099 40.3057 75.6149 41.0764C75.7812 41.4968 75.7386 41.9309 75.718 42.365C75.7152 42.431 75.6603 42.4681 75.5957 42.4749C75.5366 42.4818 75.4762 42.4873 75.4171 42.4859C73.7356 42.4818 72.0554 42.4832 70.3739 42.4708C69.9494 42.4681 69.5428 42.3678 69.1842 42.1191C68.6429 41.7413 68.3379 41.233 68.3448 40.5654C68.3476 40.303 68.2679 40.0296 68.408 39.7768C68.6567 39.6985 68.9122 39.7535 69.165 39.7356C69.3504 39.7219 69.5441 39.7658 69.7296 39.6999Z" fill="white"/>
<path d="M60.5197 2.52506C60.5664 3.86725 59.3163 5.04459 57.9823 5.02948C56.7816 5.01574 55.4985 3.94831 55.5026 2.50308C55.5067 1.23094 56.5865 0.00689598 58.0043 0.00140081C59.4715 -0.00546816 60.5788 1.27491 60.5197 2.52506Z" fill="white"/>
<path d="M51.0392 5.01437C49.8948 5.0762 48.5485 4.04722 48.5416 2.51819C48.5348 1.13753 49.697 -0.0068382 51.0721 3.07626e-05C52.549 0.00827352 53.5917 1.32162 53.5738 2.55116C53.5532 3.82742 52.3965 5.07894 51.0392 5.01437Z" fill="white"/>
</svg>
